<?xml version="1.0" standalone="no"?>
<!DOCTYPE svg PUBLIC "-//W3C//DTD SVG 20010904//EN"
 "http://www.w3.org/TR/2001/REC-SVG-20010904/DTD/svg10.dtd">
<svg version="1.0" xmlns="http://www.w3.org/2000/svg"
 width="512.000000pt" height="512.000000pt" viewBox="0 0 512.000000 512.000000"
 preserveAspectRatio="xMidYMid meet">

<g transform="translate(0.000000,512.000000) scale(0.100000,-0.100000)"
fill="#000000" stroke="none">
<path d="M2435 4789 c-125 -18 -280 -83 -382 -159 -149 -113 -247 -252 -309
-440 -26 -78 -28 -98 -28 -240 -1 -179 10 -231 78 -375 23 -49 316 -562 650
-1140 334 -577 699 -1207 809 -1399 212 -365 267 -443 370 -525 421 -337 1045
-207 1291 269 63 122 87 211 93 356 7 143 -11 249 -61 364 -28 66 -341 612
-1274 2225 -427 739 -428 740 -513 825 -191 189 -459 277 -724 239z"/>
<path d="M1022 2988 c-260 -452 -471 -822 -469 -824 2 -3 21 3 41 11 101 42
207 59 371 59 139 -1 173 -4 257 -27 259 -69 482 -228 626 -446 84 -129 130
-244 167 -426 7 -34 -23 -82 255 401 l167 291 -244 419 c-591 1012 -656 1134
-678 1290 -4 27 -10 54 -14 60 -3 7 -219 -357 -479 -808z"/>
<path d="M845 2020 c-86 -14 -190 -47 -267 -85 -231 -116 -402 -340 -453 -594
-23 -112 -16 -294 15 -401 80 -280 300 -500 585 -586 79 -24 108 -27 230 -28
117 0 153 3 220 22 298 85 523 306 607 598 31 107 33 344 4 444 -48 164 -123
287 -249 406 -144 137 -333 217 -538 228 -52 2 -121 1 -154 -4z"/>
</g>
</svg>
