<?xml version="1.0" standalone="no"?>
<!DOCTYPE svg PUBLIC "-//W3C//DTD SVG 20010904//EN"
 "http://www.w3.org/TR/2001/REC-SVG-20010904/DTD/svg10.dtd">
<svg version="1.0" xmlns="http://www.w3.org/2000/svg"
 width="512.000000pt" height="512.000000pt" viewBox="0 0 512.000000 512.000000"
 preserveAspectRatio="xMidYMid meet">

<g transform="translate(0.000000,512.000000) scale(0.100000,-0.100000)"
fill="#000000" stroke="none">
<path d="M827 5104 c-391 -71 -694 -355 -800 -749 -21 -79 -21 -95 -24 -994
-4 -982 -3 -1002 48 -1154 67 -200 212 -394 378 -506 92 -63 233 -127 337
-153 l89 -23 1700 0 c1620 0 1704 1 1780 19 242 56 472 210 605 405 60 89 125
232 152 331 22 85 22 88 25 999 3 789 2 925 -12 1003 -69 398 -351 703 -750
811 l-80 22 -1685 1 c-1414 2 -1697 0 -1763 -12z m3437 -404 c113 -29 190 -73
276 -160 87 -86 131 -163 160 -276 19 -74 20 -114 20 -944 0 -830 -1 -870 -20
-944 -28 -111 -73 -189 -160 -276 -86 -87 -162 -131 -276 -160 -75 -20 -117
-20 -1704 -20 -1587 0 -1629 0 -1704 20 -113 29 -190 73 -276 160 -87 86 -131
163 -160 276 -19 74 -20 114 -20 944 0 830 1 870 20 944 29 113 73 190 160
276 85 86 163 131 272 160 70 18 131 19 1704 19 1592 1 1633 1 1708 -19z"/>
<path d="M3590 4304 c-164 -35 -330 -164 -401 -310 l-34 -71 -170 -6 c-239 -8
-386 -42 -581 -132 -240 -111 -467 -317 -607 -551 l-36 -61 -65 63 c-145 142
-328 233 -538 270 -175 30 -269 8 -326 -79 -37 -56 -39 -153 -3 -210 39 -64
85 -87 192 -97 172 -16 298 -72 403 -179 107 -109 160 -229 176 -400 10 -107
33 -153 97 -192 57 -36 154 -34 210 3 67 44 84 82 94 210 16 203 65 352 164
504 104 160 277 304 447 375 127 53 218 70 388 75 l155 5 34 -73 c47 -101 157
-211 261 -262 179 -87 379 -85 553 6 81 42 203 164 245 245 70 133 88 286 52
427 -29 113 -73 190 -160 276 -86 87 -163 131 -276 160 -89 23 -181 24 -274 4z
m240 -418 c59 -39 85 -89 85 -166 0 -78 -26 -127 -88 -168 -56 -37 -153 -39
-210 -3 -76 47 -111 140 -88 229 14 51 75 117 123 131 53 16 135 6 178 -23z"/>
<path d="M2790 1184 c-165 -35 -331 -164 -401 -311 l-34 -72 -1110 -3 -1110
-3 -38 -24 c-21 -13 -50 -42 -65 -64 -39 -58 -39 -156 0 -214 15 -22 44 -51
65 -64 l38 -24 1110 -3 1110 -3 34 -72 c48 -100 158 -210 261 -261 179 -87
379 -85 553 6 81 42 203 164 245 245 42 80 72 198 72 283 0 85 -30 203 -72
283 -42 81 -164 203 -245 245 -126 66 -274 86 -413 56z m240 -418 c59 -39 85
-89 85 -166 0 -78 -26 -127 -88 -168 -56 -37 -153 -39 -210 -3 -76 47 -111
140 -88 229 14 51 75 117 123 131 53 16 135 6 178 -23z"/>
<path d="M4052 789 c-47 -14 -109 -80 -123 -131 -23 -89 12 -182 88 -229 l38
-24 465 0 465 0 38 24 c21 13 50 42 65 64 23 34 27 52 27 107 0 55 -4 73 -27
107 -15 22 -44 51 -65 64 l-38 24 -450 2 c-267 1 -463 -2 -483 -8z"/>
</g>
</svg>
