<?xml version="1.0" standalone="no"?>
<!DOCTYPE svg PUBLIC "-//W3C//DTD SVG 20010904//EN"
 "http://www.w3.org/TR/2001/REC-SVG-20010904/DTD/svg10.dtd">
<svg version="1.0" xmlns="http://www.w3.org/2000/svg"
 width="512.000000pt" height="512.000000pt" viewBox="0 0 512.000000 512.000000"
 preserveAspectRatio="xMidYMid meet">

<g transform="translate(0.000000,512.000000) scale(0.100000,-0.100000)"
fill="#000000" stroke="none">
<path d="M240 5027 c-49 -16 -133 -102 -148 -153 -17 -59 -17 -1849 0 -1908
16 -55 99 -138 154 -154 29 -8 148 -12 400 -12 l359 0 64 -78 63 -77 -358 -5
c-325 -5 -363 -7 -397 -24 -49 -24 -110 -95 -125 -144 -17 -57 -17 -1688 0
-1746 16 -55 99 -138 154 -154 30 -9 166 -12 480 -12 l439 -1 183 -220 c194
-234 224 -259 302 -259 43 0 107 29 137 61 45 49 53 88 53 259 l0 160 456 0
c329 0 468 3 498 12 55 16 138 99 154 154 9 31 12 220 12 738 l0 696 80 0 80
0 0 -162 c0 -137 3 -169 19 -203 45 -99 151 -139 248 -96 33 15 79 65 225 240
l183 220 439 1 c314 0 450 3 480 12 55 16 138 99 154 154 17 59 17 1849 0
1906 -6 22 -31 62 -55 88 -77 86 10 80 -1235 80 l-1098 0 0 216 c0 139 -4 231
-12 256 -6 22 -31 62 -55 88 -77 86 8 80 -1217 79 -758 -1 -1091 -4 -1116 -12z
m2215 -172 l25 -24 0 -911 0 -911 -25 -24 -24 -25 -456 0 -455 0 0 -234 c0
-208 -2 -235 -16 -240 -23 -9 -31 -1 -241 251 l-186 223 -394 0 -394 0 -24 25
-25 24 0 911 0 911 25 24 24 25 1071 0 1071 0 24 -25z m2400 -640 l25 -24 0
-911 0 -911 -25 -24 -24 -25 -474 0 -473 0 -192 -229 c-105 -125 -198 -233
-205 -240 -8 -6 -22 -9 -31 -5 -14 5 -16 33 -16 240 l0 234 -535 0 -536 0 -24
25 c-25 24 -25 24 -25 240 l0 215 56 0 c31 0 75 5 98 12 55 16 138 99 154 154
9 31 12 203 12 658 l0 616 1095 0 1096 0 24 -25z m-2695 -1495 l0 -80 -240 0
-240 0 0 80 0 80 240 0 240 0 0 -80z m-839 -302 c82 -94 158 -119 244 -79 48
22 79 54 100 104 l15 37 240 0 240 0 0 -56 c0 -31 5 -75 12 -98 16 -55 99
-138 154 -154 28 -8 134 -12 338 -12 l296 0 0 -695 0 -696 -25 -24 -24 -25
-536 0 -535 0 0 -234 c0 -208 -2 -235 -16 -240 -23 -9 -33 1 -242 252 l-185
222 -474 0 -474 0 -24 25 -25 24 0 831 0 831 25 24 24 25 410 0 409 0 53 -62z"/>
<path d="M921 4545 c-171 -48 -304 -191 -347 -371 -20 -88 -14 -214 17 -302
42 -123 81 -166 433 -479 180 -161 332 -293 337 -293 11 0 637 558 672 599 73
87 116 198 124 321 27 419 -409 685 -744 454 l-53 -36 -53 36 c-29 20 -77 46
-107 57 -72 28 -205 34 -279 14z m243 -174 c27 -11 80 -52 122 -93 l74 -71 74
71 c94 92 145 115 247 116 63 0 86 -5 132 -27 67 -33 120 -90 156 -166 22 -48
26 -69 26 -151 0 -82 -4 -103 -27 -152 -15 -32 -48 -81 -75 -109 -58 -62 -521
-474 -532 -474 -12 0 -487 422 -539 479 -176 191 -112 505 120 588 66 23 155
19 222 -11z"/>
<path d="M3729 4067 c-88 -33 -130 -82 -163 -191 -30 -95 -84 -191 -144 -256
l-47 -51 -32 16 c-27 14 -64 16 -237 13 -224 -3 -230 -5 -280 -72 -21 -27 -21
-38 -21 -486 0 -448 0 -459 21 -486 50 -67 55 -69 282 -72 234 -3 255 2 301
71 l24 36 36 -18 c61 -31 194 -69 284 -81 50 -7 184 -10 328 -8 243 3 244 3
295 30 76 40 107 70 145 140 l34 63 0 325 0 325 -27 51 c-40 76 -70 107 -140
144 -59 31 -71 34 -176 38 l-114 5 9 61 c20 147 1 228 -73 314 -68 80 -215
123 -305 89z m134 -161 c40 -16 83 -65 92 -104 3 -16 -6 -97 -20 -179 -14 -83
-25 -158 -25 -166 0 -14 27 -16 194 -19 213 -3 221 -5 270 -72 20 -26 21 -40
21 -326 0 -286 -1 -300 -21 -326 -50 -68 -53 -69 -302 -72 -305 -4 -410 12
-569 90 l-63 31 0 320 0 320 66 70 c89 93 155 198 193 302 17 47 31 90 31 95
0 16 52 50 77 50 13 0 38 -6 56 -14z m-583 -866 l0 -400 -160 0 -160 0 0 400
0 400 160 0 160 0 0 -400z"/>
<path d="M1605 2151 c-92 -24 -173 -90 -215 -176 -20 -41 -24 -66 -24 -135 0
-73 4 -92 27 -137 15 -28 31 -54 37 -58 18 -11 11 -22 -41 -54 l-51 -31 9 32
c4 18 8 65 7 103 0 60 -6 80 -34 133 -37 70 -68 100 -144 140 -44 22 -63 26
-136 26 -100 0 -160 -24 -225 -89 -65 -65 -89 -125 -89 -225 0 -85 13 -125 67
-203 10 -15 9 -20 -8 -29 -45 -26 -135 -122 -164 -177 -45 -85 -61 -159 -61
-283 l0 -108 79 0 79 0 4 122 c4 103 8 131 29 173 67 140 226 213 372 171 31
-9 57 -20 57 -24 0 -4 -4 -23 -10 -42 -10 -37 -51 -382 -46 -387 4 -4 150 -22
153 -19 1 1 12 81 23 177 11 96 24 188 29 205 34 118 131 214 250 248 193 56
396 -56 452 -248 5 -17 18 -109 29 -205 11 -96 22 -176 23 -177 3 -3 149 15
153 19 5 5 -36 350 -46 387 -6 19 -10 38 -10 42 0 17 115 40 172 34 109 -11
196 -70 248 -168 32 -60 34 -69 38 -185 l4 -123 79 0 79 0 0 108 c0 124 -16
198 -61 283 -29 55 -119 151 -164 177 -17 9 -18 14 -8 29 54 78 67 118 67 203
1 78 -2 90 -33 148 -38 70 -70 100 -145 140 -44 22 -63 26 -136 26 -69 0 -94
-4 -135 -24 -64 -31 -124 -92 -154 -155 -26 -54 -34 -159 -18 -223 l9 -32 -51
31 c-28 18 -51 33 -51 35 0 2 11 20 25 40 65 95 70 220 13 326 -35 66 -68 97
-140 134 -54 27 -159 40 -213 25z m138 -165 c103 -43 128 -177 48 -257 -65
-65 -157 -65 -222 0 -124 123 13 325 174 257z m-640 -160 c103 -43 128 -177
48 -257 -65 -65 -157 -65 -222 0 -124 123 13 325 174 257z m1280 0 c103 -43
128 -177 48 -257 -65 -65 -157 -65 -222 0 -124 123 13 325 174 257z"/>
</g>
</svg>
